<?xml version="1.0" encoding="UTF-8"?>
<svg version="1.1" xmlns="http://www.w3.org/2000/svg" width="512" height="512">
<path d="M0 0 C1.91895717 -0.00576172 1.91895717 -0.00576172 3.87668115 -0.01163983 C5.30975367 -0.01085949 6.74282614 -0.00998069 8.17589855 -0.00901413 C9.68786371 -0.01159624 11.19982818 -0.01460896 12.71179169 -0.01801753 C16.88200093 -0.02610897 21.05219297 -0.02787829 25.22240913 -0.028615 C29.71399549 -0.03046184 34.20557286 -0.03800729 38.69715405 -0.04475021 C48.52556906 -0.05834925 58.35398 -0.06436069 68.18240285 -0.06876087 C74.31565421 -0.07152063 80.44890398 -0.07575749 86.58215427 -0.08026505 C103.5527925 -0.09245974 120.52342945 -0.10275867 137.49407196 -0.10614014 C138.58085724 -0.1063597 139.66764251 -0.10657927 140.78736068 -0.10680549 C141.87679309 -0.10702377 142.96622551 -0.10724204 144.08867103 -0.10746694 C146.29639169 -0.10791041 148.50411234 -0.10835697 150.711833 -0.10880661 C152.3545026 -0.10913875 152.3545026 -0.10913875 154.03035744 -0.10947761 C171.78071981 -0.1134268 189.53104115 -0.13088362 207.28138766 -0.15416613 C225.4916266 -0.17785969 243.70184493 -0.19034108 261.91209954 -0.19150805 C272.14204655 -0.19242594 282.37194012 -0.19820667 292.60187244 -0.21632767 C301.31197755 -0.23170175 310.02201269 -0.23686508 318.73212878 -0.22858956 C323.17827486 -0.22467349 327.62427994 -0.22565913 332.07040882 -0.23964691 C336.1385198 -0.25232868 340.20638301 -0.25123905 344.27449336 -0.2390562 C345.74827018 -0.23708922 347.22206421 -0.24022353 348.69581679 -0.24890056 C350.69553885 -0.25993138 352.69534209 -0.25074724 354.69506836 -0.24050903 C355.8069445 -0.24110612 356.91882064 -0.24170321 358.06439 -0.24231839 C362.71703043 0.34279653 365.23715923 2.2212999 368.28629589 5.69392776 C370.71940327 9.08289875 371.16037358 10.74113074 371.14982128 14.85652542 C371.14974575 15.8373912 371.14967022 16.81825699 371.1495924 17.82884598 C371.14443111 18.89033859 371.13926983 19.95183121 371.13395214 21.04549026 C371.13182972 22.67265472 371.13182972 22.67265472 371.12966442 24.33269119 C371.12405392 27.80729776 371.11149961 31.28184058 371.09879589 34.75642776 C371.09378225 37.10798934 371.0892191 39.45955191 371.08512402 41.81111526 C371.07408107 47.58457463 371.05733268 53.35799664 371.03629589 59.13142776 C371.63240673 59.12254532 372.22851757 59.11366287 372.84269238 59.10451126 C379.07233072 59.01570704 385.30178791 58.95555671 391.53190136 58.9117012 C393.85391582 58.891642 396.17588012 58.86438785 398.49772167 58.82966995 C401.84403934 58.78090236 405.18968648 58.75840134 408.53629589 58.74080276 C409.56682079 58.72015762 410.5973457 58.69951248 411.65909863 58.67824173 C417.88939389 58.6763218 423.020971 59.16959717 428.03629589 63.13142776 C432.80627594 68.95748328 432.56962627 74.44235123 432.42692089 81.75252151 C432.4212611 82.85241913 432.41560131 83.95231674 432.40977001 85.08554459 C432.38747332 88.58045816 432.33728738 92.07432679 432.28629589 95.56892776 C432.26622231 97.94586603 432.24797305 100.32282045 432.23160839 102.69978714 C432.18763051 108.51068738 432.12078498 114.3209829 432.03629589 120.13142776 C432.91833187 120.12143501 432.91833187 120.12143501 433.81818676 120.11124039 C439.95024162 120.04475892 446.08219371 119.99957399 452.21451855 119.96663284 C454.50167024 119.95156661 456.78879314 119.9311098 459.07584667 119.90510941 C462.36742296 119.8686317 465.65861652 119.85167943 468.95035839 119.83845901 C469.96933208 119.82297516 470.98830578 119.8074913 472.03815746 119.79153824 C478.23473553 119.79007646 482.89621986 120.26732041 487.68082714 124.63142776 C491.36802399 129.36682439 492.16112054 132.3319204 492.16772366 138.24662113 C492.1715648 139.53426705 492.17540595 140.82191297 492.17936349 142.14857846 C492.1785832 143.58588022 492.1777044 145.02318191 492.17673779 146.46048355 C492.17932061 147.98084866 492.18233354 149.5012131 492.18574119 151.02157658 C492.19382406 155.21039899 492.19560147 159.39920427 492.19633865 163.58803356 C492.19818696 168.10143487 492.20573315 172.61482725 492.21247387 177.12822342 C492.22606663 187.00209946 492.23208331 196.87597144 492.23648453 206.74985528 C492.23924523 212.91243403 492.24348225 219.0750112 492.2479887 225.23758888 C492.26018235 242.29233356 492.27048164 259.34707697 492.27386379 276.4018259 C492.27408336 277.49375972 492.27430292 278.58569354 492.27452914 279.71071626 C492.27474742 280.80529501 492.2749657 281.89987376 492.27519059 283.02762157 C492.27563406 285.245736 492.27608062 287.46385044 492.27653027 289.68196487 C492.2767517 290.78223136 492.27697313 291.88249784 492.27720127 293.01610573 C492.28115042 310.84979372 492.29860761 328.68344086 492.32188979 346.51711307 C492.34558781 364.81665946 492.35806493 383.11618535 492.35923171 401.41574734 C492.36014932 411.69433673 492.3659232 421.97287292 492.38405132 432.25144768 C492.39943138 441.00285537 492.40458516 449.75419342 492.39631322 458.50561205 C492.39239934 462.97214142 492.39337221 467.43853044 492.40737057 471.90504265 C492.42006526 475.99290344 492.41895118 480.08051779 492.40677986 484.16837802 C492.40481515 485.64819922 492.40793686 487.12803761 492.41662422 488.60783461 C492.42767974 490.61809828 492.4184586 492.62844292 492.40823269 494.63871098 C492.40882978 495.75574085 492.40942687 496.87277073 492.41004205 498.02364999 C491.82058877 502.92507776 490.12196559 506.15167706 486.47379589 509.44392776 C482.67773731 512.07196832 480.68330934 512.2576843 476.07259178 512.26285553 C474.793287 512.26669667 473.51398222 512.27053782 472.19591063 512.27449536 C470.76283811 512.27371502 469.32976564 512.27283622 467.89669323 512.27186966 C466.38472808 512.27445176 464.8727636 512.27746449 463.36080009 512.28087306 C459.19059085 512.2889645 455.02039881 512.29073382 450.85018265 512.29147053 C446.35859629 512.29331737 441.86701892 512.30086282 437.37543774 512.30760574 C427.54702273 512.32120478 417.71861179 512.32721622 407.89018893 512.3316164 C401.75693757 512.33437616 395.6236878 512.33861302 389.49043751 512.34312057 C372.51979928 512.35531527 355.54916233 512.3656142 338.57851982 512.36899567 C337.49173454 512.36921523 336.40494927 512.3694348 335.2852311 512.36966102 C334.19579869 512.3698793 333.10636627 512.37009757 331.98392075 512.37032247 C329.7762001 512.37076594 327.56847944 512.3712125 325.36075878 512.37166214 C323.71808918 512.37199428 323.71808918 512.37199428 322.04223434 512.37233314 C304.29187197 512.37628233 286.54155063 512.39373915 268.79120412 512.41702166 C250.58096518 512.44071522 232.37074685 512.45319661 214.16049224 512.45436358 C203.93054523 512.45528147 193.70065166 512.4610622 183.47071934 512.4791832 C174.76061424 512.49455728 166.05057909 512.49972061 157.34046301 512.49144509 C152.89431693 512.48752902 148.44831184 512.48851466 144.00218296 512.50250244 C139.93407199 512.51518421 135.86620877 512.51409458 131.79809842 512.50191173 C130.3243216 512.49994475 128.85052758 512.50307906 127.37677499 512.51175609 C125.37705293 512.52278691 123.37724969 512.51360277 121.37752342 512.50336456 C120.26564728 512.50396165 119.15377114 512.50455874 118.00820178 512.50517392 C113.35556135 511.920059 110.83543255 510.04155563 107.78629589 506.56892776 C105.30800373 503.11702082 104.91242939 501.42122816 104.9227705 497.22273636 C104.9228838 495.69137543 104.9228838 495.69137543 104.92299938 494.12907791 C104.92816067 493.02383774 104.93332195 491.91859756 104.93863964 490.77986526 C104.94005459 489.65069687 104.94146954 488.52152847 104.94292736 487.35814285 C104.94853846 483.74087788 104.96109287 480.12367412 104.97379589 476.50642776 C104.97880946 474.05851199 104.98337261 471.61059525 104.98746777 469.16267776 C104.99851149 463.1522401 105.01526046 457.14183831 105.03629589 451.13142776 C104.42321575 451.14031021 103.81013561 451.14919266 103.17847729 451.15834427 C96.78694022 451.24696459 90.39557822 451.30722308 84.00358105 451.35115433 C81.61939433 451.3712467 79.23525674 451.39852558 76.8512373 451.43318558 C73.42061251 451.48180635 69.99064034 451.50442088 66.55973339 451.52205276 C65.49701214 451.54269791 64.43429089 451.56334305 63.33936596 451.5846138 C57.23049285 451.58645836 53.68324487 451.21801215 49.03629589 447.13142776 C45.75573324 443.39837372 44.90989464 440.29030513 44.9227705 435.38460159 C44.92284603 434.42383209 44.92292156 433.46306259 44.92299938 432.47317886 C44.92816067 431.43872131 44.93332195 430.40426376 44.93863964 429.33845901 C44.94005459 428.2772937 44.94146954 427.21612839 44.94292736 426.12280655 C44.94852983 422.72981841 44.96108275 419.336896 44.97379589 415.94392776 C44.97881057 413.64510059 44.98337353 411.34627239 44.98746777 409.04744339 C44.99850006 403.40874905 45.0152406 397.7700931 45.03629589 392.13142776 C44.43574383 392.1380896 43.83519176 392.14475143 43.21644115 392.15161514 C36.95462438 392.21808855 30.69290819 392.26327824 24.43082714 392.29622269 C22.09517373 392.31129037 19.75954852 392.33174825 17.4239912 392.35774612 C14.0629177 392.39421735 10.70221897 392.41117467 7.34098339 392.42439651 C6.30013592 392.43988037 5.25928844 392.45536423 4.18690014 392.47131729 C-2.06784846 392.47276267 -6.7766853 392.03835228 -11.60823536 387.63142776 C-15.29543221 382.89603114 -16.08852876 379.93093513 -16.09513187 374.0162344 C-16.09897302 372.72858848 -16.10281416 371.44094256 -16.10677171 370.11427706 C-16.10599141 368.67697531 -16.10511262 367.23967362 -16.104146 365.80237198 C-16.10672883 364.28200687 -16.10974176 362.76164243 -16.1131494 361.24127895 C-16.12123228 357.05245654 -16.12300969 352.86365126 -16.12374687 348.67482197 C-16.12559518 344.16142066 -16.13314136 339.64802828 -16.13988209 335.13463211 C-16.15347485 325.26075607 -16.15949153 315.38688409 -16.16389275 305.51300025 C-16.16665345 299.3504215 -16.17089047 293.18784433 -16.17539692 287.02526665 C-16.18759057 269.97052197 -16.19788986 252.91577856 -16.20127201 235.86102962 C-16.20149158 234.76909581 -16.20171114 233.67716199 -16.20193736 232.55213927 C-16.20215564 231.45756052 -16.20237392 230.36298177 -16.20259881 229.23523396 C-16.20304228 227.01711953 -16.20348884 224.79900509 -16.20393848 222.58089066 C-16.20415991 221.48062417 -16.20438134 220.38035769 -16.20460948 219.2467498 C-16.20855864 201.41306181 -16.22601582 183.57941467 -16.24929801 165.74574246 C-16.27299603 147.44619607 -16.28547315 129.14667018 -16.28663993 110.84710819 C-16.28755754 100.5685188 -16.29333142 90.28998261 -16.31145954 80.01140785 C-16.3268396 71.26000016 -16.33199338 62.50866211 -16.32372144 53.75724348 C-16.31980756 49.29071411 -16.32078043 44.82432509 -16.33477879 40.35781288 C-16.34747348 36.26995209 -16.3463594 32.18233774 -16.33418807 28.09447751 C-16.33222337 26.61465631 -16.33534508 25.13481792 -16.34403244 23.65502091 C-16.35508796 21.64475725 -16.34586682 19.63441261 -16.33564091 17.62414455 C-16.336238 16.50711468 -16.33683508 15.3900848 -16.33745027 14.23920554 C-15.74799699 9.33777777 -14.04937381 6.11117847 -10.40120411 2.81892776 C-6.60514553 0.19088721 -4.61071756 0.00517123 0 0 Z M15.03629589 30.13142776 C15.03629589 139.36142776 15.03629589 248.59142776 15.03629589 361.13142776 C122.28629589 361.13142776 229.53629589 361.13142776 340.03629589 361.13142776 C340.03629589 251.90142776 340.03629589 142.67142776 340.03629589 30.13142776 C232.78629589 30.13142776 125.53629589 30.13142776 15.03629589 30.13142776 Z M371.03629589 90.13142776 C371.03042965 93.76377426 371.02456341 97.39612076 371.0185194 101.13853836 C370.96335701 134.4390919 370.89340836 167.73958804 370.80730961 201.04007644 C370.79604129 205.40353441 370.78490286 209.7669927 370.77384472 214.1304512 C370.77164104 214.99914624 370.76943735 215.86784127 370.76716689 216.7628604 C370.73178347 230.83319252 370.70692523 244.90352459 370.68594887 258.97388472 C370.66419514 273.40872774 370.63114879 287.84351297 370.58759433 302.27830684 C370.56107024 311.18711681 370.54338045 320.09585475 370.53694985 329.00470226 C370.53169828 335.11179084 370.51548911 341.21878874 370.49063023 347.32582875 C370.47660725 350.85058008 370.46744736 354.37516906 370.47128773 357.89995003 C370.47532456 361.72089369 370.45630364 365.54152425 370.43502331 369.36241531 C370.44229467 371.03459867 370.44229467 371.03459867 370.44971293 372.74056351 C370.35599139 382.90518568 370.35599139 382.90518568 367.03629589 387.13142776 C361.08486721 391.78223306 354.59034769 391.70268071 347.33048534 391.6504097 C345.58676427 391.66166158 345.58676427 391.66166158 343.80781651 391.67314076 C340.5990565 391.68987069 337.39087835 391.68886956 334.18210483 391.68023324 C330.71522358 391.67527471 327.24845196 391.69339023 323.78161144 391.7086525 C317.78105152 391.73193487 311.78061234 391.74071436 305.78000927 391.73954391 C297.10425695 391.73787278 288.42866532 391.75822863 279.75295591 391.78389922 C265.67602369 391.82495607 251.59912042 391.84828699 237.52213573 391.86043167 C223.85055795 391.87226464 210.17903466 391.89247002 196.5074873 391.92390823 C195.66426934 391.92584434 194.82105138 391.92778044 193.95228136 391.92977521 C189.72195394 391.93953997 185.49162693 391.94946904 181.26130009 391.95947981 C146.18632076 392.04226977 111.11135236 392.09517996 76.03629589 392.13142776 C76.03629589 401.70142776 76.03629589 411.27142776 76.03629589 421.13142776 C183.28629589 421.13142776 290.53629589 421.13142776 401.03629589 421.13142776 C401.03629589 311.90142776 401.03629589 202.67142776 401.03629589 90.13142776 C391.13629589 90.13142776 381.23629589 90.13142776 371.03629589 90.13142776 Z M432.03629589 151.13142776 C432.03265026 154.75124619 432.02900463 158.37106461 432.02524853 162.10057449 C431.98998024 195.28639727 431.93496278 228.47214017 431.85837494 261.65789417 C431.84835735 266.00633081 431.83851324 270.35476783 431.82877636 274.70320511 C431.8258643 276.00176174 431.8258643 276.00176174 431.82289341 277.32655184 C431.79186277 291.3483905 431.77488979 305.37021278 431.76310167 319.39207931 C431.75069562 333.7772129 431.72320659 348.16226049 431.68168283 362.5473398 C431.65653174 371.42546429 431.64317978 380.30344619 431.64486632 389.18160681 C431.64489605 395.26769153 431.63029002 401.35363088 431.60413161 407.43965895 C431.58946743 410.95230534 431.58129807 414.4646536 431.5904932 417.97732544 C431.60029252 421.78520329 431.5792937 425.59255636 431.55527782 429.40037918 C431.56691845 431.06672612 431.56691845 431.06672612 431.57879424 432.76673663 C431.51250015 438.68599547 431.25328166 442.5921737 427.03629589 447.13142776 C422.384443 451.36302807 416.50991857 450.55634104 410.57735729 450.53015518 C409.40518919 450.53680201 408.23302109 450.54344884 407.02533275 450.55029708 C403.77568485 450.56572202 400.52634515 450.56776515 397.27667272 450.56416762 C393.77089613 450.56354395 390.26519633 450.58016209 386.75945568 450.5946846 C380.68683524 450.61748131 374.6142722 450.62935755 368.54161167 450.63381386 C359.76158341 450.64027271 350.98165897 450.66320539 342.20167253 450.69015715 C327.95670156 450.73343737 313.71173495 450.76339707 299.46671581 450.78499222 C285.62912886 450.80599821 271.79157766 450.83326998 257.9540205 450.86897659 C257.10105338 450.87117542 256.24808626 450.87337424 255.36927166 450.8756397 C251.09018018 450.88670926 246.81108903 450.89790208 242.53199804 450.9091562 C207.03345969 451.00235879 171.5349077 451.07312774 136.03629589 451.13142776 C136.03629589 461.36142776 136.03629589 471.59142776 136.03629589 482.13142776 C243.28629589 482.13142776 350.53629589 482.13142776 461.03629589 482.13142776 C461.03629589 372.90142776 461.03629589 263.67142776 461.03629589 151.13142776 C451.46629589 151.13142776 441.89629589 151.13142776 432.03629589 151.13142776 Z " fill="#000000" transform="translate(17.963704109191895,-0.13142776489257813)"/>
<path d="M0 0 C8.68544888 8.19403346 15.67403963 17.52868324 19.75 28.8125 C20.141875 29.89660156 20.53375 30.98070312 20.9375 32.09765625 C26.76905127 50.70597437 24.98899829 70.71043018 16.5 88.1875 C6.7591651 106.40761794 -8.89238432 118.97015689 -28.53125 125.12109375 C-47.29432956 129.89273898 -67.51936669 127.51794185 -84.52734375 118.453125 C-90.78056515 114.68504324 -96.28336275 110.16118626 -101.25 104.8125 C-101.84296875 104.23628906 -102.4359375 103.66007812 -103.046875 103.06640625 C-115.46517248 90.33524468 -121.51055059 72.21760848 -121.6875 54.625 C-121.08245638 34.15435746 -113.05906574 15.08629831 -98.25 0.8125 C-87.95118391 -8.30095161 -75.02504346 -15.30536535 -61.25 -17.1875 C-60.60933594 -17.30738281 -59.96867187 -17.42726563 -59.30859375 -17.55078125 C-38.35018545 -20.85163113 -15.71286384 -14.14532754 0 0 Z M-78.25 24.8125 C-85.93375092 33.91798446 -90.69069282 44.44519647 -90.4609375 56.484375 C-89.41334269 68.04671777 -84.79367969 78.23519109 -76.3046875 86.21484375 C-65.29388339 94.7764766 -53.84484227 97.05282237 -40.25 95.8125 C-29.87565673 93.79135791 -20.59332239 87.42353365 -14.3125 79 C-7.78433763 68.65851201 -6.03846368 58.85517105 -7.25 46.8125 C-8.74471962 40.45231548 -11.26256852 35.00824405 -15.25 29.8125 C-16.3328125 28.3275 -16.3328125 28.3275 -17.4375 26.8125 C-24.16949272 18.9721914 -34.56008806 14.19082125 -44.6875 12.9375 C-57.2378822 12.25004929 -68.80511992 16.47237525 -78.25 24.8125 Z " fill="#000000" transform="translate(244.25,103.1875)"/>
<path d="M0 0 C0.82914872 -0.00623996 1.65829744 -0.01247993 2.51257187 -0.01890898 C5.2832548 -0.03482859 8.0530567 -0.02223887 10.82374573 -0.00964355 C12.81325289 -0.01506517 14.80275604 -0.02218806 16.79225159 -0.03088379 C22.19105461 -0.04911642 27.58955181 -0.04204944 32.98836017 -0.02936745 C38.63988235 -0.01923813 44.2913784 -0.02863307 49.94290161 -0.03491211 C59.43464354 -0.04218929 68.92626098 -0.03259951 78.41798401 -0.0135498 C89.3880065 0.00821273 100.35773154 0.00117224 111.32774681 -0.02085543 C120.74873188 -0.03901482 130.16962747 -0.04156489 139.59062439 -0.03110075 C145.2162727 -0.02486802 150.84178127 -0.02402411 156.46742058 -0.0372467 C161.75756354 -0.04881212 167.04732358 -0.04076654 172.33742523 -0.01766968 C174.27761512 -0.01238605 176.2178373 -0.01389042 178.1580143 -0.02272034 C180.80938938 -0.03367328 183.45954235 -0.01991552 186.11083984 0 C186.87621974 -0.00892289 187.64159963 -0.01784577 188.43017286 -0.02703905 C193.89810637 0.05246837 197.09622069 1.41097044 201.61891174 4.50793457 C204.6575419 8.25557843 205.459137 11.71469238 205.61891174 16.50793457 C204.75601274 21.06126772 203.53316172 24.51749709 200.36891174 27.94543457 C194.63015177 31.20609364 188.90826459 31.80135454 182.42127991 31.76190186 C181.62394518 31.76502184 180.82661046 31.76814182 180.00511408 31.77135634 C177.34830872 31.77929799 174.6917342 31.77302773 172.03492737 31.76672363 C170.12409329 31.7694352 168.21326026 31.77299706 166.3024292 31.77734375 C161.1227607 31.78645031 155.94317199 31.78293062 150.76350212 31.77658558 C145.33887901 31.77151664 139.91426266 31.77621952 134.48963928 31.77935791 C125.38053665 31.78299494 116.27146647 31.77820534 107.16236877 31.76867676 C96.6360376 31.75779273 86.10978391 31.76131849 75.58345461 31.77232957 C66.54038471 31.78140992 57.49733811 31.78268405 48.45426512 31.77745223 C43.05558725 31.77433666 37.65694578 31.77391189 32.25827026 31.78052521 C27.18244111 31.78630889 22.10671172 31.78228299 17.03089333 31.77073669 C15.16971311 31.76809559 13.30852449 31.76884581 11.44734764 31.77326202 C8.90363352 31.7787406 6.36023753 31.77185536 3.81654358 31.76190186 C3.08297339 31.7663633 2.3494032 31.77082474 1.59360361 31.77542138 C-3.7226293 31.73517245 -9.15282022 31.3899777 -13.34202576 27.85168457 C-13.80866638 27.24324707 -14.27530701 26.63480957 -14.75608826 26.00793457 C-15.23819763 25.39949707 -15.72030701 24.79105957 -16.21702576 24.16418457 C-19.19917296 19.92112949 -18.93049982 15.5377587 -18.38108826 10.50793457 C-14.50465343 2.45687763 -8.59941811 -0.09996166 0 0 Z " fill="#000000" transform="translate(102.38108825683594,264.4920654296875)"/>
</svg>
